<?xml version="1.0" encoding="utf-8"?>
<!-- Generator: Adobe Illustrator 24.3.0, SVG Export Plug-In . SVG Version: 6.00 Build 0)  -->
<svg version="1.1" id="Layer_1" xmlns="http://www.w3.org/2000/svg" xmlns:xlink="http://www.w3.org/1999/xlink" x="0px" y="0px"
	 viewBox="0 0 472.06 61.51" style="enable-background:new 0 0 472.06 61.51;" xml:space="preserve">
<style type="text/css">
	.st0{fill:#595A5A;}
	.st1{fill:#BF6786;}
</style>
<g>
	<path class="st0" d="M67.06,19.28c0.9,0.57,1.93,1.56,3.08,2.97V6.93h4.9v41.75h-4.59v-4.22c-1.19,1.87-2.59,3.22-4.2,4.05
		c-1.62,0.83-3.47,1.25-5.56,1.25c-3.37,0-6.28-1.42-8.75-4.26c-2.46-2.84-3.7-6.62-3.7-11.34c0-4.42,1.12-8.25,3.37-11.49
		c2.25-3.24,5.46-4.86,9.64-4.86C63.56,17.81,65.49,18.3,67.06,19.28z M55.67,42.03c1.37,2.19,3.57,3.29,6.6,3.29
		c2.35,0,4.28-1.02,5.79-3.05c1.51-2.03,2.27-4.94,2.27-8.74c0-3.83-0.78-6.67-2.34-8.51c-1.56-1.84-3.49-2.76-5.78-2.76
		c-2.56,0-4.63,0.98-6.21,2.95c-1.59,1.96-2.38,4.85-2.38,8.67C53.62,37.12,54.3,39.83,55.67,42.03z"/>
	<path class="st0" d="M82.65,7.07h5.18v5.78h-5.18V7.07z M82.65,18.49h5.18v30.2h-5.18V18.49z"/>
	<path class="st0" d="M112.41,19.56c0.96,0.66,1.94,1.62,2.93,2.89v-3.82h4.7v27.59c0,3.85-0.56,6.89-1.69,9.12
		c-2.11,4.12-6.09,6.18-11.94,6.18c-3.26,0-5.99-0.73-8.22-2.2c-2.22-1.46-3.46-3.75-3.73-6.87h5.18c0.24,1.36,0.73,2.41,1.47,3.14
		c1.15,1.13,2.95,1.7,5.41,1.7c3.89,0,6.43-1.38,7.63-4.14c0.71-1.62,1.04-4.52,0.99-8.7c-1.02,1.55-2.24,2.7-3.67,3.46
		c-1.43,0.76-3.32,1.13-5.67,1.13c-3.27,0-6.14-1.17-8.59-3.5c-2.45-2.33-3.68-6.19-3.68-11.57c0-5.08,1.24-9.05,3.71-11.9
		c2.47-2.85,5.46-4.28,8.96-4.28C108.57,17.81,110.64,18.39,112.41,19.56z M113.03,25.03c-1.54-1.81-3.5-2.72-5.89-2.72
		c-3.57,0-6.01,1.68-7.33,5.04c-0.7,1.79-1.04,4.15-1.04,7.05c0,3.42,0.69,6.02,2.07,7.8c1.38,1.78,3.24,2.68,5.57,2.68
		c3.64,0,6.21-1.65,7.69-4.96c0.83-1.87,1.24-4.05,1.24-6.54C115.34,29.63,114.57,26.84,113.03,25.03z"/>
	<path class="st0" d="M127.81,7.07h5.18v5.78h-5.18V7.07z M127.81,18.49h5.18v30.2h-5.18V18.49z"/>
	<path class="st0" d="M141.71,9.87h5.16v8.47h4.84v4.16h-4.84v19.8c0,1.06,0.36,1.77,1.08,2.12c0.4,0.21,1.06,0.31,1.98,0.31
		c0.25,0,0.51-0.01,0.79-0.02c0.28-0.01,0.61-0.04,0.99-0.1v4.05c-0.59,0.17-1.19,0.29-1.83,0.37c-0.63,0.08-1.32,0.11-2.05,0.11
		c-2.38,0-3.99-0.61-4.84-1.83s-1.27-2.8-1.27-4.74V22.51h-4.11v-4.16h4.11V9.87z"/>
	<path class="st0" d="M173.07,30.32c1.17-0.15,1.95-0.64,2.35-1.47c0.23-0.46,0.34-1.11,0.34-1.96c0-1.74-0.62-3.01-1.85-3.8
		c-1.23-0.79-3-1.18-5.3-1.18c-2.66,0-4.54,0.72-5.65,2.16c-0.62,0.8-1.03,1.98-1.22,3.56h-4.76c0.09-3.75,1.31-6.36,3.64-7.83
		c2.33-1.47,5.03-2.2,8.11-2.2c3.56,0,6.46,0.68,8.69,2.04c2.21,1.36,3.31,3.47,3.31,6.35v17.48c0,0.53,0.11,0.95,0.33,1.27
		c0.22,0.32,0.68,0.48,1.37,0.48c0.23,0,0.48-0.01,0.76-0.04c0.28-0.03,0.59-0.07,0.91-0.13v3.77c-0.79,0.23-1.4,0.37-1.81,0.42
		s-0.98,0.08-1.7,0.08c-1.76,0-3.03-0.62-3.82-1.87c-0.42-0.66-0.71-1.6-0.88-2.8c-1.04,1.36-2.53,2.54-4.48,3.54
		c-1.95,1-4.09,1.5-6.43,1.5c-2.81,0-5.11-0.85-6.9-2.56c-1.78-1.71-2.68-3.84-2.68-6.41c0-2.81,0.88-4.99,2.63-6.54
		c1.76-1.55,4.06-2.5,6.91-2.86L173.07,30.32z M162.34,44.1c1.08,0.85,2.35,1.27,3.82,1.27c1.79,0,3.53-0.41,5.21-1.24
		c2.83-1.38,4.25-3.63,4.25-6.76v-4.1c-0.62,0.4-1.42,0.73-2.4,0.99c-0.98,0.27-1.94,0.45-2.88,0.57l-3.08,0.4
		c-1.85,0.25-3.24,0.63-4.17,1.16c-1.58,0.89-2.37,2.3-2.37,4.24C160.72,42.09,161.26,43.25,162.34,44.1z"/>
	<path class="st0" d="M189.22,7.07h5.1v41.61h-5.1V7.07z"/>
	<path class="st0" d="M201.97,6.93h5.1v15.52c1.21-1.53,2.29-2.61,3.26-3.23c1.64-1.08,3.69-1.61,6.15-1.61
		c4.4,0,7.38,1.54,8.95,4.62c0.85,1.68,1.27,4.01,1.27,7v19.46h-5.24V29.56c0-2.23-0.28-3.86-0.85-4.9
		c-0.93-1.66-2.66-2.49-5.21-2.49c-2.12,0-4.03,0.73-5.75,2.18c-1.72,1.45-2.58,4.2-2.58,8.24v16.09h-5.1V6.93z"/>
	<path class="st0" d="M252.97,19.18c2.01,1.01,3.54,2.32,4.59,3.92c1.01,1.53,1.69,3.31,2.03,5.35c0.3,1.4,0.45,3.63,0.45,6.69
		h-22.07c0.09,3.09,0.82,5.56,2.16,7.43c1.35,1.87,3.44,2.8,6.27,2.8c2.64,0,4.75-0.88,6.32-2.65c0.88-1.02,1.5-2.21,1.87-3.56h5.01
		c-0.13,1.11-0.57,2.36-1.32,3.73c-0.75,1.37-1.58,2.49-2.5,3.36c-1.54,1.51-3.44,2.53-5.71,3.06c-1.22,0.3-2.6,0.45-4.13,0.45
		c-3.75,0-6.93-1.37-9.54-4.12c-2.61-2.75-3.91-6.6-3.91-11.54c0-4.87,1.31-8.83,3.94-11.87c2.63-3.04,6.06-4.56,10.3-4.56
		C248.89,17.66,250.96,18.17,252.97,19.18z M254.8,31.09c-0.21-2.21-0.68-3.98-1.43-5.3c-1.39-2.45-3.7-3.68-6.94-3.68
		c-2.32,0-4.27,0.85-5.84,2.54c-1.57,1.69-2.41,3.84-2.5,6.44H254.8z"/>
	<path class="st0" d="M282.76,30.32c1.17-0.15,1.95-0.64,2.35-1.47c0.23-0.46,0.34-1.11,0.34-1.96c0-1.74-0.62-3.01-1.85-3.8
		c-1.23-0.79-3-1.18-5.3-1.18c-2.66,0-4.54,0.72-5.65,2.16c-0.62,0.8-1.03,1.98-1.22,3.56h-4.76c0.09-3.75,1.31-6.36,3.64-7.83
		c2.33-1.47,5.03-2.2,8.11-2.2c3.56,0,6.46,0.68,8.69,2.04c2.21,1.36,3.31,3.47,3.31,6.35v17.48c0,0.53,0.11,0.95,0.33,1.27
		c0.22,0.32,0.68,0.48,1.37,0.48c0.23,0,0.48-0.01,0.76-0.04c0.28-0.03,0.59-0.07,0.91-0.13v3.77c-0.79,0.23-1.4,0.37-1.81,0.42
		s-0.98,0.08-1.7,0.08c-1.76,0-3.03-0.62-3.82-1.87c-0.42-0.66-0.71-1.6-0.88-2.8c-1.04,1.36-2.53,2.54-4.48,3.54
		c-1.95,1-4.09,1.5-6.43,1.5c-2.81,0-5.11-0.85-6.9-2.56c-1.78-1.71-2.68-3.84-2.68-6.41c0-2.81,0.88-4.99,2.63-6.54
		s4.06-2.5,6.91-2.86L282.76,30.32z M272.02,44.1c1.08,0.85,2.35,1.27,3.82,1.27c1.79,0,3.53-0.41,5.21-1.24
		c2.83-1.38,4.25-3.63,4.25-6.76v-4.1c-0.62,0.4-1.42,0.73-2.4,0.99c-0.98,0.27-1.94,0.45-2.88,0.57l-3.08,0.4
		c-1.85,0.25-3.24,0.63-4.17,1.16c-1.58,0.89-2.37,2.3-2.37,4.24C270.41,42.09,270.94,43.25,272.02,44.1z"/>
	<path class="st0" d="M298.9,7.07h5.1v41.61h-5.1V7.07z"/>
	<path class="st0" d="M312.67,9.87h5.16v8.47h4.84v4.16h-4.84v19.8c0,1.06,0.36,1.77,1.08,2.12c0.4,0.21,1.06,0.31,1.98,0.31
		c0.25,0,0.51-0.01,0.79-0.02c0.28-0.01,0.61-0.04,0.99-0.1v4.05c-0.59,0.17-1.19,0.29-1.83,0.37c-0.63,0.08-1.32,0.11-2.05,0.11
		c-2.38,0-3.99-0.61-4.84-1.83s-1.27-2.8-1.27-4.74V22.51h-4.11v-4.16h4.11V9.87z"/>
	<path class="st0" d="M327.77,6.93h5.1v15.52c1.21-1.53,2.29-2.61,3.26-3.23c1.64-1.08,3.69-1.61,6.15-1.61
		c4.4,0,7.38,1.54,8.95,4.62c0.85,1.68,1.27,4.01,1.27,7v19.46h-5.24V29.56c0-2.23-0.28-3.86-0.85-4.9
		c-0.93-1.66-2.66-2.49-5.21-2.49c-2.12,0-4.03,0.73-5.75,2.18c-1.72,1.45-2.58,4.2-2.58,8.24v16.09h-5.1V6.93z"/>
	<path class="st1" d="M374.62,17.81h8.19l4.7,22.24l4.82-22.24h8.41l-8.95,30.88h-8.3l-4.84-22.49l-4.9,22.49h-8.38l-8.67-30.88
		h8.67l4.82,22.15L374.62,17.81z"/>
	<path class="st1" d="M413.49,14.12h-8.19V6.67h8.19V14.12z M405.3,17.81h8.19v30.88h-8.19V17.81z"/>
	<path class="st1" d="M438.46,17.08c0.1,0.01,0.34,0.02,0.69,0.04v8.27c-0.51-0.06-0.96-0.09-1.36-0.11
		c-0.4-0.02-0.72-0.03-0.96-0.03c-3.25,0-5.43,1.06-6.54,3.17c-0.62,1.19-0.93,3.02-0.93,5.5v14.76h-8.13V17.81h7.71v5.38
		c1.25-2.06,2.33-3.47,3.26-4.22c1.51-1.26,3.47-1.9,5.89-1.9C438.23,17.07,438.35,17.07,438.46,17.08z"/>
	<path class="st1" d="M464,18.43c2.15,0.96,3.93,2.49,5.34,4.57c1.26,1.83,2.08,3.96,2.46,6.38c0.22,1.42,0.31,3.46,0.27,6.13
		h-22.49c0.13,3.1,1.2,5.27,3.23,6.52c1.23,0.77,2.72,1.16,4.45,1.16c1.84,0,3.33-0.47,4.48-1.42c0.63-0.51,1.18-1.22,1.66-2.12
		h8.24c-0.22,1.83-1.22,3.69-2.99,5.58c-2.77,3-6.64,4.5-11.62,4.5c-4.11,0-7.74-1.27-10.88-3.8c-3.14-2.53-4.71-6.65-4.71-12.36
		c0-5.35,1.42-9.45,4.25-12.3c2.84-2.85,6.52-4.28,11.04-4.28C459.43,16.98,461.85,17.47,464,18.43z M451.92,25.41
		c-1.14,1.18-1.86,2.77-2.15,4.78h13.91c-0.15-2.14-0.86-3.77-2.15-4.88c-1.29-1.11-2.88-1.66-4.79-1.66
		C454.67,23.64,453.07,24.23,451.92,25.41z"/>
</g>
<g>
	<rect x="8.36" y="15.25" class="st1" width="8.36" height="8.36"/>
	<rect y="6.89" class="st1" width="8.36" height="8.36"/>
	<polygon class="st1" points="41.8,15.25 41.8,40.32 33.44,40.32 33.44,48.68 8.36,48.68 8.36,40.32 0,40.32 0,23.61 8.36,23.61 
		8.36,31.96 16.72,31.96 16.72,40.32 25.08,40.32 25.08,31.96 33.44,31.96 33.44,23.61 25.08,23.61 25.08,15.25 16.72,15.25 
		16.72,6.89 33.44,6.89 33.44,15.25 	"/>
</g>
</svg>
