<?xml version="1.0" standalone="no"?>
<!DOCTYPE svg PUBLIC "-//W3C//DTD SVG 20010904//EN"
 "http://www.w3.org/TR/2001/REC-SVG-20010904/DTD/svg10.dtd">
<svg version="1.0" xmlns="http://www.w3.org/2000/svg"
 width="700.000000pt" height="700.000000pt" viewBox="0 0 700.000000 700.000000"
 preserveAspectRatio="xMidYMid meet">
<metadata>
Created by potrace 1.14, written by Peter Selinger 2001-2017
</metadata>
<g transform="translate(0.000000,700.000000) scale(0.100000,-0.100000)"
fill="#000000" stroke="none">
<path d="M0 6300 l0 -700 700 0 700 0 0 -700 0 -700 -700 0 -700 0 0 -1400 0
-1400 700 0 700 0 0 -700 0 -700 2100 0 2100 0 0 700 0 700 700 0 700 0 0
2100 0 2100 -700 0 -700 0 0 700 0 700 -1400 0 -1399 0 -1 -552 c0 -304 0
-619 0 -700 l0 -148 -700 0 -700 0 0 653 c1 358 1 673 0 700 l0 47 -700 0
-700 0 0 -700z m4200 -1400 l0 -700 700 0 700 0 0 -700 0 -700 -700 0 -700 0
0 -700 0 -700 -700 0 -700 0 0 497 c0 274 0 589 0 701 l0 202 -700 0 -700 0 0
700 0 700 700 0 700 0 0 258 c0 141 0 456 0 700 l0 442 700 0 700 0 0 -700z"/>
</g>
</svg>
